<svg style="max-height: 500px" xmlns="http://www.w3.org/2000/svg" xmlns:xlink="http://www.w3.org/1999/xlink" version="1.1" viewBox="497.2107382550335 474.768 88.06228187919463 129.276" xml:space="preserve" width="88.06228187919463" height="129.276">
<desc>Created with Fabric.js 5.2.4</desc>
<defs>
</defs>
<g transform="matrix(1 0 0 1 540 540)" id="f54829f4-fdc2-40db-814d-1c93b221e63a">
<rect style="stroke: none; stroke-width: 1; stroke-dasharray: none; stroke-linecap: butt; stroke-dashoffset: 0; stroke-linejoin: miter; stroke-miterlimit: 4; fill: rgb(255,255,255); fill-rule: nonzero; opacity: 1; visibility: hidden;" x="-540" y="-540" rx="0" ry="0" width="1080" height="1080"/>
</g>
<g transform="matrix(1 0 0 1 540 540)" id="478ad46e-a7c0-4b9a-b780-9f2ff42c46f9">
</g>
<g transform="matrix(1 0 0 1 561.17 540)">
<g style="">
		<g transform="matrix(1 0 0 1 0 0)">
<rect style="stroke: none; stroke-width: 1; stroke-dasharray: none; stroke-linecap: butt; stroke-dashoffset: 0; stroke-linejoin: miter; stroke-miterlimit: 4; fill: rgb(255,255,255); fill-rule: nonzero; opacity: 1; visibility: hidden;" x="-540" y="-540" rx="0" ry="0" width="1080" height="1080"/>
</g>
		<g transform="matrix(1 0 0 1 -20.96 0)">
<path style="stroke: none; stroke-width: 1; stroke-dasharray: none; stroke-linecap: butt; stroke-dashoffset: 0; stroke-linejoin: miter; stroke-miterlimit: 4; fill: none; fill-rule: nonzero; opacity: 1;" transform="translate(-75, -75)" d="M 0 0 L 150 0 L 150 150 L 0 150 L 0 0 z" stroke-linecap="round"/>
</g>
		<g transform="matrix(1 0 0 1 -20.72 -18.16)">
<path style="stroke: none; stroke-width: 1; stroke-dasharray: none; stroke-linecap: butt; stroke-dashoffset: 0; stroke-linejoin: miter; stroke-miterlimit: 4; fill: rgb(255,255,255); fill-rule: nonzero; opacity: 1;" transform="translate(-75.25, -56.84)" d="M 77.2 10 C 72.8 9.9 68.3 10.4 63.6 11.6 C 42.1 17 18 44.7 44.3 76.6 L 64.4 101 C 67.4 104.5 72.2 104.5 75.80000000000001 101.5 C 79.4 98.5 80.4 93.7 77.50000000000001 90.1 L 75.80000000000001 87.89999999999999 C 74.70000000000002 86.49999999999999 61.10000000000001 70.19999999999999 61.10000000000001 70.19999999999999 C 49.70000000000001 56.29999999999999 54.80000000000001 39.19999999999999 70.30000000000001 29.499999999999986 C 84 20.9 109 24 117.7 38.1 C 112.1 22 96.3 10.5 77.2 10 z" stroke-linecap="round"/>
</g>
		<g transform="matrix(1 0 0 1 -20.56 15.68)">
<path style="stroke: none; stroke-width: 1; stroke-dasharray: none; stroke-linecap: butt; stroke-dashoffset: 0; stroke-linejoin: miter; stroke-miterlimit: 4; fill: rgb(255,255,255); fill-rule: nonzero; opacity: 1;" transform="translate(-75.4, -90.68)" d="M 80.4 43.6 C 78.4 43.5 76.2 44.300000000000004 74.5 45.800000000000004 C 70.9 48.800000000000004 69.9 53.6 72.8 57.2 L 89.6 77.6 C 101 91.5 95.89999999999999 108.5 80.39999999999999 118.3 C 66.69999999999999 126.89999999999999 41.69999999999999 123.8 32.99999999999999 109.7 C 39.699999999999996 129.5 62.099999999999994 142.4 87 136.2 C 108.5 130.79999999999998 132.6 103.19999999999999 106.3 71.19999999999999 L 85.9 46.3 C 84.4 44.5 82.4 43.599999999999994 80.4 43.599999999999994 z" stroke-linecap="round"/>
</g>
</g>
</g>
</svg>